<svg id="Layer_1" data-name="Layer 1" xmlns="http://www.w3.org/2000/svg" xmlns:xlink="http://www.w3.org/1999/xlink" viewBox="0 0 500 500"><defs><style>.cls-1{fill:url(#linear-gradient);}.cls-2{fill:url(#linear-gradient-2);}.cls-3{fill:url(#linear-gradient-3);}</style><linearGradient id="linear-gradient" x1="51.11" y1="420.47" x2="339.94" y2="173.5" gradientUnits="userSpaceOnUse"><stop offset="0" stop-color="#1b36f7"/><stop offset="1" stop-color="#fdc6fd"/></linearGradient><linearGradient id="linear-gradient-2" x1="18.6" y1="382.45" x2="307.43" y2="135.48" xlink:href="#linear-gradient"/><linearGradient id="linear-gradient-3" x1="29.66" y1="429.51" x2="322.17" y2="179.4" xlink:href="#linear-gradient"/></defs><path class="cls-1" d="M340.9,320.85c-7.88,7.88-17.81,11.95-28.57,13.68a157,157,0,0,1-24,2.2c-37.95.23-75.92.12-113.89.1-9,0-15.82-5.21-17.78-13.4a16.78,16.78,0,0,1,9-19.2,23.75,23.75,0,0,1,9.48-1.94c25.14-.17,50.28,0,75.43-.16a17.41,17.41,0,0,0,.6-34.82c-3.88-.09-7.75,0-11.64,0a17.28,17.28,0,1,1-.06-34.55c15.6-.07,31.21.07,46.8-.06a16.55,16.55,0,0,0,15.53-9.78c3.15-6.36,2.43-12.6-1.8-18.26-3.58-4.78-8.58-6.84-14.52-6.83-15.3,0-30.6,0-45.92,0-18,0-36,.05-54,0-10.8-.05-18.48-8-18-18.29.43-9.46,8.17-16.35,18.49-16.35l96.9,0c10.36,0,20.65.43,30.69,3.36,1.63.48,3.22,1,4.74,1.6a12.08,12.08,0,0,0,5.36,21,11.88,11.88,0,0,0-.5,4.1A12.08,12.08,0,0,0,336,204.64a9.93,9.93,0,0,0,1.56-.18c0,.22,0,.43,0,.65a13,13,0,0,0,10.93,12.19,48.09,48.09,0,0,1-3,15.25,30.1,30.1,0,0,1-13.63,16c-.67.37-1.31.78-2,1.22,3.52,2,6.92,3.47,9.86,5.59,8.24,5.91,12.52,14.37,13.62,24.21C355.06,295,352.41,309.37,340.9,320.85Z"/><path class="cls-2" d="M173.59,267.27c-3.57,0-7.14.08-10.71,0a17.26,17.26,0,0,1,0-34.51q10.58-.21,21.14,0a17.26,17.26,0,0,1,0,34.51C180.54,267.34,177.06,267.27,173.59,267.27Z"/><path class="cls-3" d="M317.45,183.59c0,.15-.09.29-.13.42-.15-.17-.3-.35-.48-.53Z"/><path class="cls-3" d="M317.45,183.59c0,.15-.09.29-.13.42-.15-.17-.3-.35-.48-.53Z"/></svg>